<svg width="30" height="25" viewBox="0 0 30 25" fill="none" xmlns="http://www.w3.org/2000/svg">
<path d="M28.7006 0.947033L28.6988 0.94686C28.6988 0.94686 21.1996 0.345425 17.3601 0.0189237C17.3556 0.0185673 17.3512 0.0182203 17.3463 0.0178061C14.6253 -0.204858 10.0157 1.65989 6.45575 5.66184C4.22042 8.17476 1.7483 12.2978 2.13392 17.9943C0.947651 19.5854 0.143312 21.3368 0.00418733 23.2242C-0.0544671 24.0196 0.50996 24.715 1.26535 24.7768C2.02069 24.8386 2.68027 24.2434 2.73892 23.4481C2.8123 22.4528 3.19463 21.4725 3.78858 20.5228C4.75716 20.6054 8.15292 20.9049 10.644 21.2482C10.9419 21.2886 11.2386 21.3214 11.5346 21.3456C14.4545 21.5846 17.2635 21.0086 19.7066 19.6611C23.9491 17.321 29.1721 12.4445 29.9611 2.50804C29.9917 2.12463 29.8756 1.74333 29.6383 1.45029C29.402 1.15823 29.0643 0.976781 28.7006 0.947033ZM18.4342 17.1008C16.2468 18.3079 13.6763 18.7543 10.9995 18.3824C9.42364 18.1656 7.53861 17.9693 6.08028 17.8298C9.59888 14.5536 14.9725 11.9578 17.5818 10.9506C18.293 10.6766 18.6587 9.84695 18.3982 9.09723C18.1378 8.34745 17.3501 7.95933 16.6396 8.23709C15.6057 8.63485 9.49066 11.0893 4.96766 15.0065C5.41886 11.745 6.99796 9.27838 8.45724 7.63825C11.2501 4.49826 15.1318 2.73529 17.1325 2.89904C17.1348 2.89921 17.1379 2.89945 17.1401 2.89962C19.9477 3.13699 24.7085 3.52188 27.0726 3.71437C26.0298 11.3721 21.858 15.2117 18.4342 17.1008Z" fill="#D8A353"/>
</svg>