<svg width="100" height="150" viewBox="0 0 100 150" fill="none" xmlns="http://www.w3.org/2000/svg">
<path d="M100 146.875C100 148.625 98.5646 150 96.8102 150H3.18979C1.40351 150 0 148.625 0 146.875C0 135.406 8.77193 122.093 20.1276 122.093C22.4561 122.093 24.7847 122.53 26.9856 123.374C29.6332 114.624 36.5231 108.155 45.1037 106.342V63.6221L34.3541 54.0593C34.0441 53.7843 33.7924 53.4522 33.6134 53.082C33.4345 52.7117 33.3317 52.3105 33.3109 51.9014C33.2902 51.4922 33.3519 51.083 33.4926 50.6972C33.6333 50.3114 33.8501 49.9565 34.1308 49.6529C34.4114 49.3492 34.7504 49.1026 35.1283 48.9272C35.5062 48.7519 35.9157 48.6512 36.3333 48.6309C36.751 48.6106 37.1686 48.6711 37.5624 48.8089C37.9562 48.9467 38.3184 49.1591 38.6284 49.4341L45.1037 55.153V38.7462L44.4338 38.7775C43.5726 38.8712 42.6794 38.9025 41.8182 38.9025C23.9872 38.9025 8.96332 25.2145 7.62361 7.77644L7.30463 3.74505C7.27286 3.33664 7.3236 2.9261 7.45394 2.53692C7.58428 2.14773 7.79167 1.78755 8.06423 1.47697C8.3368 1.16639 8.6692 0.911516 9.04241 0.726921C9.41562 0.542327 9.82232 0.431638 10.2392 0.401189L14.3541 0.0886778C33.3014 -1.25512 49.7608 12.8391 51.1643 31.121L51.4833 35.1524V68.4347C54.6269 63.9622 58.8332 60.3055 63.7399 57.7794C68.6465 55.2534 74.1063 53.9338 79.6491 53.9343C81.7863 53.9343 83.9234 54.153 86.0287 54.528L90.0797 55.2781C90.9091 55.4343 91.6428 55.9031 92.1212 56.5906C92.3595 56.9292 92.5273 57.3105 92.6148 57.7127C92.7024 58.1149 92.7081 58.5301 92.6316 58.9344L91.866 62.9033C88.8038 78.7788 74.6412 90.3105 58.1499 90.3105C56.0128 90.3105 53.8756 90.123 51.7703 89.7167L51.4833 89.6542V105.842C61.3716 106.53 69.1866 114.749 72.6635 123.499C74.9601 122.562 77.3844 122.093 79.8405 122.093C91.1962 122.093 100 135.406 100 146.875Z" fill="#D8A353"/>
</svg>