<svg width="40" height="45" viewBox="0 0 40 40" fill="none" xmlns="http://www.w3.org/2000/svg">
    <path d="M38.0897 19.1755L37.9521 18.8936L37.6634 18.7148C35.382 17.3549 32.7542 16.6884 30.1005 16.7966C28.526 8.56673 22.9019 1.87011 15.5934 0.0825047L15.2634 0L14.9402 0.0825047C6.2841 2.19325 0 11.1931 0 21.465C0 31.7368 6.2841 40.716 14.9402 42.8543L15.2634 42.9368L15.5934 42.8543C15.8271 42.7993 16.0678 42.7374 16.2809 42.6687C18.1602 43.5606 20.2167 44.0166 22.2969 44.0025C26.9668 43.9182 31.4146 41.9933 34.6726 38.6466C40.1591 33.1462 41.603 24.9577 38.0897 19.1755ZM13.8883 27.8178L3.19018 17.106C3.70227 14.4394 4.72987 11.8984 6.21535 9.62554L13.8883 17.3329V27.8178ZM16.6384 17.1403L24.2426 9.57742C25.7358 11.8257 26.7773 14.343 27.309 16.9891L16.6384 27.6253V17.1403ZM16.6384 39.6504V31.5099L27.7422 20.413C27.7422 20.7637 27.7766 21.1006 27.7766 21.465C27.7766 29.7911 23.1907 37.1271 16.6384 39.6504ZM36.5221 22.2281C37.0506 23.6071 37.3029 25.0765 37.2646 26.5527H32.1906L36.5221 22.2281ZM29.1654 29.5642L29.4404 29.2892H36.8933C36.4908 31.0011 35.7928 32.6298 34.8307 34.1019H27.0409C27.9087 32.6693 28.6209 31.1481 29.1654 29.5642ZM34.5832 20.2755L30.348 24.5108V24.4489C30.4668 23.4587 30.5265 22.4623 30.5267 21.465C30.5267 20.8187 30.5267 20.1793 30.458 19.5467C31.8664 19.5316 33.2652 19.7788 34.5832 20.2755ZM22.5238 7.37042L16.6384 13.2557V3.28644C18.8875 4.17834 20.9012 5.5757 22.5238 7.37042ZM13.8883 3.28644V13.4414L7.92045 7.46667C9.55721 5.62771 11.6007 4.19631 13.8883 3.28644ZM2.75016 21.465V20.5918L13.8883 31.7024V39.6504C7.34292 37.1271 2.75016 29.7911 2.75016 21.465ZM20.0761 41.0392C21.9614 39.931 23.6446 38.5105 25.0539 36.8383H32.5756C29.0141 40.3242 24.2357 41.8505 20.0761 41.0392Z" fill="#D8A353"/>
</svg>  