<svg width="31" height="31" viewBox="0 0 31 31" fill="none" xmlns="http://www.w3.org/2000/svg">
    <path d="M24.6011 30.5946C23.5338 31.3928 16.6856 26.3331 15.374 26.322C14.0624 26.311 7.13699 31.2543 6.08214 30.4381C5.02729 29.622 7.50719 21.2395 7.11199 19.9301C6.71678 18.6208 0.0861592 13.2525 0.501506 11.9499C0.916945 10.6474 9.29787 10.5264 10.3652 9.72818C11.4325 8.93009 14.26 0.668994 15.5717 0.680019C16.8832 0.69114 19.5829 8.99892 20.6378 9.81504C21.6926 10.6311 30.0707 10.8937 30.466 12.2031C30.8612 13.5125 24.1488 18.768 23.7334 20.0706C23.318 21.3731 25.6685 29.7964 24.6011 30.5946Z" fill="#D8A353"/>
</svg>